# Blender 3.3.1
# www.blender.org
mtllib circular room.mtl
o Cylinder
v -0.000000 -0.294075 -1.080324
v -0.000000 0.294075 -1.080324
v 0.210761 -0.294075 -1.059566
v 0.210761 0.294075 -1.059566
v 0.413422 -0.294075 -0.998089
v 0.413422 0.294075 -0.998089
v 0.600196 -0.294075 -0.898257
v 0.600196 0.294075 -0.898257
v 0.763905 -0.294075 -0.763905
v 0.763905 0.294075 -0.763905
v 0.898257 -0.294075 -0.600196
v 0.898257 0.294075 -0.600196
v 0.998089 -0.294075 -0.413422
v 0.998089 0.294075 -0.413422
v 1.059566 -0.294075 -0.210761
v 1.059566 0.294075 -0.210761
v 1.080324 -0.294075 0.000000
v 1.080324 0.294075 0.000000
v 1.059566 -0.294075 0.210761
v 1.059566 0.294075 0.210761
v 0.998089 -0.294075 0.413422
v 0.998089 0.294075 0.413422
v 0.898257 -0.294075 0.600196
v 0.898257 0.294075 0.600196
v 0.763905 -0.294075 0.763905
v 0.763905 0.294075 0.763905
v 0.413422 -0.294075 0.998089
v 0.413422 0.294075 0.998089
v 0.210761 -0.294075 1.059566
v 0.210761 0.294075 1.059566
v -0.000000 -0.294075 1.080324
v -0.000000 0.294075 1.080324
v -0.210761 -0.294075 1.059566
v -0.210761 0.294075 1.059566
v -0.413422 -0.294075 0.998089
v -0.413422 0.294075 0.998089
v -0.600196 -0.294075 0.898257
v -0.600196 0.294075 0.898257
v -0.763905 -0.294075 0.763905
v -0.763905 0.294075 0.763905
v -0.898257 -0.294075 0.600196
v -0.898257 0.294075 0.600196
v -0.998089 -0.294075 0.413422
v -0.998089 0.294075 0.413422
v -1.059566 -0.294075 0.210761
v -1.059566 0.294075 0.210761
v -1.080324 -0.294075 0.000000
v -1.080324 0.294075 0.000000
v -1.059566 -0.294075 -0.210761
v -1.059566 0.294075 -0.210761
v -0.998089 -0.294075 -0.413422
v -0.998089 0.294075 -0.413422
v -0.898257 -0.294075 -0.600196
v -0.898257 0.294075 -0.600196
v -0.763905 -0.294075 -0.763905
v -0.763905 0.294075 -0.763905
v -0.600196 -0.294075 -0.898257
v -0.600196 0.294075 -0.898257
v -0.413422 -0.294075 -0.998089
v -0.413422 0.294075 -0.998089
v -0.210761 -0.294075 -1.059566
v -0.210761 0.294075 -1.059566
v -0.000000 -0.294075 -0.874103
v 0.172100 -0.294075 -0.857308
v 0.172100 0.294075 -0.857308
v -0.000000 0.294075 -0.874103
v 0.337587 -0.294075 -0.807566
v 0.337587 0.294075 -0.807566
v 0.490100 -0.294075 -0.726790
v 0.490100 0.294075 -0.726790
v 0.623780 -0.294075 -0.618084
v 0.623780 0.294075 -0.618084
v 0.733487 -0.294075 -0.485626
v 0.733487 0.294075 -0.485626
v 0.815007 -0.294075 -0.334505
v 0.815007 0.294075 -0.334505
v 0.865207 -0.294075 -0.170529
v 0.865207 0.294075 -0.170529
v 0.882158 -0.294075 0.000000
v 0.882158 0.294075 0.000000
v 0.865207 -0.294075 0.170529
v 0.865207 0.294075 0.170529
v 0.815007 -0.294075 0.334505
v 0.815007 0.294075 0.334505
v 0.733487 -0.294075 0.485626
v 0.733487 0.294075 0.485626
v 0.623780 -0.294075 0.618084
v 0.623780 0.294075 0.618084
v 0.337587 -0.294075 0.807566
v 0.337587 0.294075 0.807566
v 0.172100 -0.294075 0.857308
v 0.172100 0.294075 0.857308
v -0.000000 -0.294075 0.874103
v -0.000000 0.294075 0.874103
v -0.172100 -0.294075 0.857308
v -0.172100 0.294075 0.857308
v -0.337587 -0.294075 0.807566
v -0.337587 0.294075 0.807566
v -0.490100 -0.294075 0.726790
v -0.490100 0.294075 0.726790
v -0.623780 -0.294075 0.618084
v -0.623780 0.294075 0.618084
v -0.733487 -0.294075 0.485626
v -0.733487 0.294075 0.485626
v -0.815007 -0.294075 0.334505
v -0.815007 0.294075 0.334505
v -0.865207 -0.294075 0.170529
v -0.865207 0.294075 0.170529
v -0.882158 -0.294075 0.000000
v -0.882158 0.294075 0.000000
v -0.865207 -0.294075 -0.170529
v -0.865207 0.294075 -0.170529
v -0.815007 -0.294075 -0.334505
v -0.815007 0.294075 -0.334505
v -0.733487 -0.294075 -0.485626
v -0.733487 0.294075 -0.485626
v -0.623780 -0.294075 -0.618084
v -0.623780 0.294075 -0.618084
v -0.490100 -0.294075 -0.726790
v -0.490100 0.294075 -0.726790
v -0.337587 -0.294075 -0.807566
v -0.337587 0.294075 -0.807566
v -0.172100 -0.294075 -0.857308
v -0.172100 0.294075 -0.857308
vn -0.0000 -0.0000 -1.0000
vn 0.1951 -0.0000 -0.9808
vn 0.3827 -0.0000 -0.9239
vn 0.5556 -0.0000 -0.8315
vn 0.7071 -0.0000 -0.7071
vn 0.8315 -0.0000 -0.5556
vn 0.9239 -0.0000 -0.3827
vn 0.9808 -0.0000 -0.1951
vn 1.0000 -0.0000 -0.0000
vn 0.9808 -0.0000 0.1951
vn 0.9239 -0.0000 0.3827
vn 0.8315 -0.0000 0.5556
vn 0.7730 -0.0000 0.6344
vn 0.2903 -0.0000 0.9569
vn 0.1951 -0.0000 0.9808
vn -0.0000 -0.0000 1.0000
vn -0.1951 -0.0000 0.9808
vn -0.3827 -0.0000 0.9239
vn -0.5556 -0.0000 0.8315
vn -0.7071 -0.0000 0.7071
vn -0.8315 -0.0000 0.5556
vn -0.9239 -0.0000 0.3827
vn -0.9808 -0.0000 0.1951
vn -1.0000 -0.0000 -0.0000
vn -0.9808 -0.0000 -0.1951
vn -0.9239 -0.0000 -0.3827
vn -0.8315 -0.0000 -0.5556
vn -0.7071 -0.0000 -0.7071
vn -0.5556 -0.0000 -0.8315
vn -0.3827 -0.0000 -0.9239
vn -0.0000 -1.0000 -0.0000
vn -0.1951 -0.0000 -0.9808
vn -0.0000 1.0000 -0.0000
vn 0.9291 -0.0000 -0.3698
vn -0.7210 -0.0000 0.6929
vn 0.1934 -0.0000 0.9811
vn 0.3798 -0.0000 0.9251
vn 0.5521 -0.0000 0.8338
vn 0.7039 -0.0000 0.7103
vn 0.8291 -0.0000 0.5590
vn 0.9227 -0.0000 0.3856
vn 0.9804 -0.0000 0.1968
vn 0.9804 -0.0000 -0.1968
vn 0.9227 -0.0000 -0.3856
vn 0.8291 -0.0000 -0.5590
vn 0.7039 -0.0000 -0.7103
vn 0.5521 -0.0000 -0.8338
vn 0.3798 -0.0000 -0.9251
vn 0.1934 -0.0000 -0.9811
vn -0.1934 -0.0000 -0.9811
vn -0.2879 -0.0000 -0.9577
vn -0.7701 -0.0000 -0.6379
vn -0.8291 -0.0000 -0.5590
vn -0.9227 -0.0000 -0.3856
vn -0.9804 -0.0000 -0.1968
vn -0.9804 -0.0000 0.1968
vn -0.9227 -0.0000 0.3856
vn -0.8291 -0.0000 0.5590
vn -0.7039 -0.0000 0.7103
vn -0.5521 -0.0000 0.8338
vn -0.3798 -0.0000 0.9251
vn -0.1934 -0.0000 0.9811
vt 0.626548 0.334407
vt 0.000000 0.482806
vt 0.626548 0.668814
vt 0.000000 0.150009
vt 0.595410 0.334407
vt 0.006395 0.450658
vt 0.595410 0.668814
vt 0.000000 0.182787
vt 0.566867 0.334407
vt 0.569258 0.000000
vt 0.018938 0.420376
vt 0.566867 0.668814
vt 0.569258 0.334407
vt 0.006395 0.214935
vt 0.543919 0.000000
vt 0.037148 0.393122
vt 0.543919 0.334407
vt 0.018938 0.245217
vt 0.515011 0.000000
vt 0.060326 0.369945
vt 0.515011 0.334407
vt 0.037148 0.272471
vt 0.483644 0.000000
vt 0.087579 0.351735
vt 0.483644 0.334407
vt 0.060326 0.295648
vt 0.451024 0.000000
vt 0.117862 0.339191
vt 0.451024 0.334407
vt 0.087579 0.313859
vt 0.418405 0.000000
vt 0.150010 0.332797
vt 0.418405 0.334407
vt 0.117862 0.326402
vt 0.387039 0.000000
vt 0.182787 0.332797
vt 0.387039 0.334407
vt 0.150009 0.332797
vt 0.358133 0.000000
vt 0.214935 0.339191
vt 0.358133 0.334407
vt 0.182787 0.332797
vt 0.332797 0.000000
vt 0.298934 0.665593
vt 0.245217 0.351735
vt 0.332797 0.334407
vt 0.298934 1.000000
vt 0.214935 0.326402
vt 0.277586 0.665593
vt 0.272471 0.369945
vt 0.277586 1.000000
vt 0.245217 0.313859
vt 0.251795 0.665593
vt 0.295648 0.393122
vt 0.997604 0.000000
vt 0.251795 1.000000
vt 0.272471 0.295648
vt 0.997604 0.334407
vt 0.149803 0.665593
vt 0.298934 0.665593
vt 0.326402 0.450658
vt 0.149803 1.000000
vt 0.298934 1.000000
vt 0.313859 0.245217
vt 0.117120 0.665593
vt 0.332797 0.482806
vt 0.117120 1.000000
vt 0.326402 0.214935
vt 0.084579 0.665593
vt 0.332797 0.515584
vt 0.084579 1.000000
vt 0.332797 0.182787
vt 0.053431 0.665593
vt 0.326402 0.547731
vt 0.053431 1.000000
vt 0.332797 0.150010
vt 0.024872 0.665593
vt 0.313859 0.578014
vt 0.024872 1.000000
vt 0.326402 0.117862
vt 0.000000 0.665593
vt 0.566867 0.334407
vt 0.295648 0.605268
vt 0.000000 1.000000
vt 0.566867 0.668814
vt 0.313859 0.087579
vt 0.538836 0.334407
vt 0.272471 0.628445
vt 0.538836 0.668814
vt 0.295648 0.060326
vt 0.508029 0.334407
vt 0.245217 0.646655
vt 0.508029 0.668814
vt 0.272471 0.037148
vt 0.475631 0.334407
vt 0.214935 0.659199
vt 0.475631 0.668814
vt 0.245217 0.018938
vt 0.442885 0.334407
vt 0.182787 0.665593
vt 0.442885 0.668814
vt 0.214935 0.006395
vt 0.411051 0.334407
vt 0.150009 0.665593
vt 0.411051 0.668814
vt 0.182787 0.000000
vt 0.381351 0.334407
vt 0.117862 0.659199
vt 0.381351 0.668814
vt 0.150010 0.000000
vt 0.354928 0.334407
vt 0.087579 0.646655
vt 0.354928 0.668814
vt 0.117862 0.006395
vt 0.332797 0.334407
vt 0.778414 0.334407
vt 0.060326 0.628445
vt 0.332797 0.668814
vt 0.778414 0.668814
vt 0.087579 0.018938
vt 0.752604 0.334407
vt 0.037148 0.605268
vt 0.752604 0.668814
vt 0.060326 0.037148
vt 0.723348 0.334407
vt 0.018938 0.578014
vt 0.723348 0.668814
vt 0.037148 0.060326
vt 0.691770 0.334407
vt 0.006395 0.547731
vt 0.691770 0.668814
vt 0.018938 0.087579
vt 0.659085 0.334407
vt 0.000000 0.515584
vt 0.659085 0.668814
vt 0.006395 0.117862
vt 0.031763 0.485934
vt 0.710499 0.000000
vt 0.036961 0.459681
vt 0.735939 0.000000
vt 0.031740 0.179901
vt 0.735938 0.334407
vt 0.031763 0.153138
vt 0.710499 0.334407
vt 0.047133 0.434947
vt 0.759274 0.000000
vt 0.036891 0.206145
vt 0.759274 0.334407
vt 0.061888 0.412681
vt 0.779609 0.000000
vt 0.047019 0.230861
vt 0.779609 0.334407
vt 0.080660 0.393740
vt 0.802352 0.000000
vt 0.061734 0.253100
vt 0.802352 0.334407
vt 0.102726 0.378852
vt 0.827329 0.000000
vt 0.080472 0.272007
vt 0.827329 0.334407
vt 0.127240 0.368588
vt 0.853582 0.000000
vt 0.102512 0.286856
vt 0.853582 0.334407
vt 0.153258 0.363343
vt 0.880100 0.000000
vt 0.127007 0.297076
vt 0.880100 0.334407
vt 0.179781 0.363319
vt 0.905866 0.000000
vt 0.153016 0.302274
vt 0.905866 0.334407
vt 0.205790 0.368517
vt 0.929888 0.000000
vt 0.179539 0.302250
vt 0.929888 0.334407
vt 0.230285 0.378737
vt 0.951243 0.000000
vt 0.205557 0.297005
vt 0.951243 0.334407
vt 0.252325 0.393586
vt 0.969997 0.334407
vt 0.969112 0.000000
vt 0.230070 0.286742
vt 0.969996 0.668814
vt 0.969112 0.334407
vt 0.271062 0.412493
vt 0.969112 0.000000
vt 0.991031 0.334407
vt 0.252137 0.271853
vt 0.969112 0.334407
vt 0.991031 0.668814
vt 0.330669 0.665593
vt 0.295906 0.459449
vt 0.149803 0.665593
vt 0.330669 1.000000
vt 0.285663 0.230647
vt 0.149803 1.000000
vt 0.301057 0.485693
vt 0.176477 0.665593
vt 0.295835 0.205912
vt 0.176477 1.000000
vt 0.301033 0.512455
vt 0.203041 0.665593
vt 0.301033 0.179659
vt 0.203041 1.000000
vt 0.295835 0.538708
vt 0.228472 0.665593
vt 0.301057 0.152896
vt 0.228472 1.000000
vt 0.285663 0.563443
vt 0.778415 0.334407
vt 0.251795 0.665593
vt 0.295906 0.126652
vt 0.778414 0.668814
vt 0.251795 1.000000
vt 0.270908 0.585709
vt 0.798999 0.334407
vt 0.285778 0.101936
vt 0.798999 0.668814
vt 0.252137 0.604650
vt 0.822461 0.334407
vt 0.271062 0.079696
vt 0.822461 0.668814
vt 0.230070 0.619538
vt 0.847900 0.334407
vt 0.252325 0.060789
vt 0.847900 0.668814
vt 0.205557 0.629802
vt 0.874337 0.334407
vt 0.230285 0.045940
vt 0.874337 0.668814
vt 0.179539 0.635046
vt 0.900757 0.334407
vt 0.205790 0.035721
vt 0.900757 0.668814
vt 0.153016 0.635070
vt 0.926145 0.334407
vt 0.179781 0.030523
vt 0.926145 0.668814
vt 0.127007 0.629872
vt 0.949524 0.334407
vt 0.153258 0.030547
vt 0.949524 0.668814
vt 0.102512 0.619653
vt 0.569258 0.000000
vt 0.969996 0.334407
vt 0.127240 0.035791
vt 0.569258 0.334407
vt 0.969996 0.668814
vt 0.080472 0.604804
vt 0.586644 0.000000
vt 0.102726 0.046055
vt 0.586644 0.334407
vt 0.061734 0.585897
vt 0.607663 0.000000
vt 0.080660 0.060943
vt 0.607663 0.334407
vt 0.047019 0.563658
vt 0.631507 0.000000
vt 0.061888 0.079884
vt 0.631507 0.334407
vt 0.036891 0.538941
vt 0.657260 0.000000
vt 0.047133 0.102150
vt 0.657260 0.334407
vt 0.031740 0.512697
vt 0.683932 0.000000
vt 0.036961 0.126885
vt 0.683932 0.334407
s 1
f 1/1/1 2/3/1 4/7/2 3/5/2
f 3/5/2 4/7/2 6/12/3 5/9/3
f 5/10/3 6/13/3 8/17/4 7/15/4
f 7/15/4 8/17/4 10/21/5 9/19/5
f 9/19/5 10/21/5 12/25/6 11/23/6
f 11/23/6 12/25/6 14/29/7 13/27/7
f 13/27/7 14/29/7 16/33/8 15/31/8
f 15/31/8 16/33/8 18/37/9 17/35/9
f 17/35/9 18/37/9 20/41/10 19/39/10
f 19/39/10 20/41/10 22/46/11 21/43/11
f 21/44/11 22/47/11 24/51/12 23/49/12
f 23/49/12 24/51/12 26/56/13 25/53/13
f 27/59/14 28/62/14 30/67/15 29/65/15
f 29/65/15 30/67/15 32/71/16 31/69/16
f 31/69/16 32/71/16 34/75/17 33/73/17
f 33/73/17 34/75/17 36/79/18 35/77/18
f 35/77/18 36/79/18 38/84/19 37/81/19
f 37/82/19 38/85/19 40/89/20 39/87/20
f 39/87/20 40/89/20 42/93/21 41/91/21
f 41/91/21 42/93/21 44/97/22 43/95/22
f 43/95/22 44/97/22 46/101/23 45/99/23
f 45/99/23 46/101/23 48/105/24 47/103/24
f 47/103/24 48/105/24 50/109/25 49/107/25
f 49/107/25 50/109/25 52/113/26 51/111/26
f 51/111/26 52/113/26 54/118/27 53/115/27
f 53/116/27 54/119/27 56/123/28 55/121/28
f 55/121/28 56/123/28 58/127/29 57/125/29
f 57/125/29 58/127/29 60/131/30 59/129/30
f 15/32/31 17/36/31 79/169/31 77/165/31
f 59/129/30 60/131/30 62/135/32 61/133/32
f 61/133/32 62/135/32 2/3/1 1/1/1
f 50/110/33 48/106/33 110/239/33 112/243/33
f 31/70/31 33/74/31 95/207/31 93/203/31
f 18/38/33 16/34/33 78/167/33 80/171/33
f 49/108/31 51/112/31 113/245/31 111/241/31
f 34/76/33 32/72/33 94/205/33 96/209/33
f 52/114/33 50/110/33 112/243/33 114/248/33
f 17/36/31 19/40/31 81/173/31 79/169/31
f 33/74/31 35/78/31 97/211/31 95/207/31
f 20/42/33 18/38/33 80/171/33 82/175/33
f 1/2/31 3/6/31 64/139/31 63/137/31
f 51/112/31 53/117/31 115/251/31 113/245/31
f 36/80/33 34/76/33 96/209/33 98/214/33
f 4/8/33 2/4/33 66/143/33 65/141/33
f 54/120/33 52/114/33 114/248/33 116/253/33
f 19/40/31 21/45/31 83/177/31 81/173/31
f 35/78/31 37/83/31 99/217/31 97/211/31
f 22/48/33 20/42/33 82/175/33 84/179/33
f 53/117/31 55/122/31 117/255/31 115/251/31
f 38/86/33 36/80/33 98/214/33 100/219/33
f 3/6/31 5/11/31 67/145/31 64/139/31
f 56/124/33 54/120/33 116/253/33 118/257/33
f 21/45/31 23/50/31 85/181/31 83/177/31
f 6/14/33 4/8/33 65/141/33 68/147/33
f 37/83/31 39/88/31 101/221/31 99/217/31
f 24/52/33 22/48/33 84/179/33 86/184/33
f 55/122/31 57/126/31 119/259/31 117/255/31
f 40/90/33 38/86/33 100/219/33 102/223/33
f 5/11/31 7/16/31 69/149/31 67/145/31
f 58/128/33 56/124/33 118/257/33 120/261/33
f 23/50/31 25/54/31 87/187/31 85/181/31
f 8/18/33 6/14/33 68/147/33 70/151/33
f 39/88/31 41/92/31 103/225/31 101/221/31
f 26/57/33 24/52/33 86/184/33 88/190/33
f 57/126/31 59/130/31 121/263/31 119/259/31
f 42/94/33 40/90/33 102/223/33 104/227/33
f 7/16/31 9/20/31 71/153/31 69/149/31
f 60/132/33 58/128/33 120/261/33 122/265/33
f 27/60/34 89/193/34 90/196/34 28/63/34
f 10/22/33 8/18/33 70/151/33 72/155/33
f 41/92/31 43/96/31 105/229/31 103/225/31
f 59/130/31 61/134/31 123/267/31 121/263/31
f 44/98/33 42/94/33 104/227/33 106/231/33
f 9/20/31 11/24/31 73/157/31 71/153/31
f 62/136/33 60/132/33 122/265/33 124/269/33
f 25/55/35 26/58/35 88/191/35 87/188/35
f 12/26/33 10/22/33 72/155/33 74/159/33
f 43/96/31 45/100/31 107/233/31 105/229/31
f 61/134/31 1/2/31 63/137/31 123/267/31
f 46/102/33 44/98/33 106/231/33 108/235/33
f 11/24/31 13/28/31 75/161/31 73/157/31
f 2/4/33 62/136/33 124/269/33 66/143/33
f 27/61/31 29/66/31 91/199/31 89/194/31
f 14/30/33 12/26/33 74/159/33 76/163/33
f 45/100/31 47/104/31 109/237/31 107/233/31
f 30/68/33 28/64/33 90/197/33 92/201/33
f 48/106/33 46/102/33 108/235/33 110/239/33
f 13/28/31 15/32/31 77/165/31 75/161/31
f 29/66/31 31/70/31 93/203/31 91/199/31
f 16/34/33 14/30/33 76/163/33 78/167/33
f 47/104/31 49/108/31 111/241/31 109/237/31
f 32/72/33 30/68/33 92/201/33 94/205/33
f 66/144/16 124/270/36 123/268/36 63/138/16
f 124/270/36 122/266/37 121/264/37 123/268/36
f 122/266/37 120/262/38 119/260/38 121/264/37
f 120/262/38 118/258/39 117/256/39 119/260/38
f 118/258/39 116/254/40 115/252/40 117/256/39
f 116/254/40 114/249/41 113/246/41 115/252/40
f 114/250/41 112/244/42 111/242/42 113/247/41
f 112/244/42 110/240/9 109/238/9 111/242/42
f 110/240/9 108/236/43 107/234/43 109/238/9
f 108/236/43 106/232/44 105/230/44 107/234/43
f 106/232/44 104/228/45 103/226/45 105/230/44
f 104/228/45 102/224/46 101/222/46 103/226/45
f 102/224/46 100/220/47 99/218/47 101/222/46
f 100/220/47 98/215/48 97/212/48 99/218/47
f 98/216/48 96/210/49 95/208/49 97/213/48
f 96/210/49 94/206/1 93/204/1 95/208/49
f 94/206/1 92/202/50 91/200/50 93/204/1
f 92/202/50 90/198/51 89/195/51 91/200/50
f 88/192/52 86/185/53 85/182/53 87/189/52
f 86/186/53 84/180/54 83/178/54 85/183/53
f 84/180/54 82/176/55 81/174/55 83/178/54
f 82/176/55 80/172/24 79/170/24 81/174/55
f 80/172/24 78/168/56 77/166/56 79/170/24
f 78/168/56 76/164/57 75/162/57 77/166/56
f 76/164/57 74/160/58 73/158/58 75/162/57
f 74/160/58 72/156/59 71/154/59 73/158/58
f 72/156/59 70/152/60 69/150/60 71/154/59
f 70/152/60 68/148/61 67/146/61 69/150/60
f 68/148/61 65/142/62 64/140/62 67/146/61
f 65/142/62 66/144/16 63/138/16 64/140/62
